<?xml version="1.0" encoding="UTF-8" standalone="no"?>
<!-- Created with Inkscape (http://www.inkscape.org/) -->

<svg
   xmlns:dc="http://purl.org/dc/elements/1.1/"
   xmlns:cc="http://creativecommons.org/ns#"
   xmlns:rdf="http://www.w3.org/1999/02/22-rdf-syntax-ns#"
   xmlns:svg="http://www.w3.org/2000/svg"
   xmlns="http://www.w3.org/2000/svg"
   xmlns:sodipodi="http://sodipodi.sourceforge.net/DTD/sodipodi-0.dtd"
   xmlns:inkscape="http://www.inkscape.org/namespaces/inkscape"
   width="210mm"
   height="297mm"
   viewBox="0 0 210 297"
   version="1.1"
   id="svg8"
   inkscape:version="0.92.2 (5c3e80d, 2017-08-06)"
   sodipodi:docname="pound beam.svg">
  <defs
     id="defs2" />
  <sodipodi:namedview
     id="base"
     pagecolor="#ffffff"
     bordercolor="#666666"
     borderopacity="1.0"
     inkscape:pageopacity="0.0"
     inkscape:pageshadow="2"
     inkscape:zoom="0.98994949"
     inkscape:cx="612.19312"
     inkscape:cy="503.85912"
     inkscape:document-units="mm"
     inkscape:current-layer="layer1"
     showgrid="true"
     inkscape:snap-bbox="true"
     inkscape:snap-intersection-paths="true"
     inkscape:snap-smooth-nodes="true"
     inkscape:window-width="1920"
     inkscape:window-height="1001"
     inkscape:window-x="-9"
     inkscape:window-y="-9"
     inkscape:window-maximized="1"
     inkscape:snap-bbox-midpoints="true">
    <inkscape:grid
       type="xygrid"
       id="grid4504" />
  </sodipodi:namedview>
  <metadata
     id="metadata5">
    <rdf:RDF>
      <cc:Work
         rdf:about="">
        <dc:format>image/svg+xml</dc:format>
        <dc:type
           rdf:resource="http://purl.org/dc/dcmitype/StillImage" />
        <dc:title></dc:title>
      </cc:Work>
    </rdf:RDF>
  </metadata>
  <g
     inkscape:label="Layer 1"
     inkscape:groupmode="layer"
     id="layer1">
    <g
       transform="matrix(0.28222199,0,0,0.28222199,-2.9999925,161)"
       id="g5195"
       style="fill:#ff8080;stroke:none">
      <path
         style="fill:#ff8080;stroke:none;stroke-width:0.90000075"
         d="M 143.50405,0 V 10.62993 H 161.2206 V 0 h 17.71655 V 10.62993 H 196.6537 V 0 h 17.71655 V 10.62993 H 232.0868 V 0 h 17.71655 V 10.62993 H 267.5199 V 0 h 17.71655 V 10.62993 H 302.953 V 0 h 17.71656 V 10.62993 H 338.3861 V 0 h 17.71655 V 10.62993 H 373.8192 V 0 h 17.71655 V 10.62993 H 409.2523 V 0 h 17.71655 v 10.62993 h 17.71656 V 0 h 17.71654 V 10.62993 H 480.1185 V 0 h 17.71655 v 10.62993 h 27.46066 V 0 h 27.46065 v 20.551198 h -10.62993 v 20.551198 h 10.62993 v 20.551198 h -10.62993 v 20.551198 h 10.62993 V 102.75599 H 525.29571 V 92.12606 h -27.46066 v 10.62993 H 480.1185 V 92.12606 h -17.71655 v 10.62993 H 444.68541 V 92.12606 h -17.71656 v 10.62993 H 409.2523 V 92.12606 h -17.71655 v 10.62993 H 373.8192 V 92.12606 h -17.71655 v 10.62993 H 338.3861 V 92.12606 h -17.71654 v 10.62993 H 302.953 V 92.12606 h -17.71655 v 10.62993 H 267.5199 V 92.12606 h -17.71655 v 10.62993 H 232.0868 V 92.12606 h -17.71655 v 10.62993 H 196.6537 V 92.12606 h -17.71655 v 10.62993 H 161.2206 V 92.12606 h -17.71655 v 10.62993 H 125.7875 V 92.12606 h -17.71655 v 10.62993 H 90.354405 V 92.12606 h -17.71655 v 10.62993 H 54.921305 V 92.12606 H 27.460652 v 10.62993 H 0 V 82.204792 H 10.62993 V 61.653594 H 0 V 41.102396 H 10.62993 V 20.551198 H 0 V 0 H 27.460652 V 10.62993 H 54.921305 V 0 h 17.71655 v 10.62993 h 17.71655 V 0 H 108.07095 V 10.62993 H 125.7875 V 0 Z"
         id="polygon5193"
         inkscape:connector-curvature="0" />
    </g>
    <g
       transform="matrix(0.28222199,0,0,0.28222199,-2.9999999,54)"
       id="g5199"
       style="fill:#ff8080;stroke:none">
      <polygon
         style="fill:#ff8080;stroke:none;stroke-width:0.90000075"
         points="125.7875,10.62993 125.7875,0 143.50405,0 143.50405,10.62993 161.2206,10.62993 161.2206,0 178.93715,0 178.93715,10.62993 196.6537,10.62993 196.6537,0 214.37025,0 214.37025,10.62993 232.0868,10.62993 232.0868,0 249.80335,0 249.80335,10.62993 267.5199,10.62993 267.5199,0 285.23645,0 285.23645,10.62993 302.953,10.62993 302.953,0 320.66956,0 320.66956,10.62993 338.3861,10.62993 338.3861,0 356.10265,0 356.10265,10.62993 373.8192,10.62993 373.8192,0 391.53575,0 391.53575,10.62993 409.2523,10.62993 409.2523,0 426.96885,0 426.96885,10.62993 444.68541,10.62993 444.68541,0 462.40195,0 462.40195,10.62993 480.1185,10.62993 480.1185,0 497.83505,0 497.83505,10.62993 525.29571,10.62993 525.29571,0 552.75636,0 552.75636,20.551198 542.12643,20.551198 542.12643,41.102396 552.75636,41.102396 552.75636,61.653594 542.12643,61.653594 542.12643,82.204792 552.75636,82.204792 552.75636,102.75599 525.29571,102.75599 525.29571,92.12606 497.83505,92.12606 497.83505,102.75599 480.1185,102.75599 480.1185,92.12606 462.40195,92.12606 462.40195,102.75599 444.68541,102.75599 444.68541,92.12606 426.96885,92.12606 426.96885,102.75599 409.2523,102.75599 409.2523,92.12606 391.53575,92.12606 391.53575,102.75599 373.8192,102.75599 373.8192,92.12606 356.10265,92.12606 356.10265,102.75599 338.3861,102.75599 338.3861,92.12606 320.66956,92.12606 320.66956,102.75599 302.953,102.75599 302.953,92.12606 285.23645,92.12606 285.23645,102.75599 267.5199,102.75599 267.5199,92.12606 249.80335,92.12606 249.80335,102.75599 232.0868,102.75599 232.0868,92.12606 214.37025,92.12606 214.37025,102.75599 196.6537,102.75599 196.6537,92.12606 178.93715,92.12606 178.93715,102.75599 161.2206,102.75599 161.2206,92.12606 143.50405,92.12606 143.50405,102.75599 125.7875,102.75599 125.7875,92.12606 108.07095,92.12606 108.07095,102.75599 90.354405,102.75599 90.354405,92.12606 72.637855,92.12606 72.637855,102.75599 54.921305,102.75599 54.921305,92.12606 27.460652,92.12606 27.460652,102.75599 0,102.75599 0,82.204792 10.62993,82.204792 10.62993,61.653594 0,61.653594 0,41.102396 10.62993,41.102396 10.62993,20.551198 0,20.551198 0,0 27.460652,0 27.460652,10.62993 54.921305,10.62993 54.921305,0 72.637855,0 72.637855,10.62993 90.354405,10.62993 90.354405,0 108.07095,0 108.07095,10.62993 "
         id="polygon5197" />
    </g>
    <g
       transform="matrix(0,0.28222199,-0.28222199,0,-4,84)"
       id="g5203"
       style="fill:#ff8080;stroke:none">
      <polygon
         style="fill:#ff8080;stroke:none;stroke-width:0.90000075"
         points="143.50405,10.62993 161.2206,10.62993 161.2206,0 178.93715,0 178.93715,10.62993 196.6537,10.62993 196.6537,0 214.37025,0 214.37025,10.62993 241.83091,10.62993 241.83091,0 258.66163,0 258.66163,20.551198 269.29156,20.551198 269.29156,41.102396 258.66163,41.102396 258.66163,61.653594 269.29156,61.653594 269.29156,82.204792 258.66163,82.204792 258.66163,102.75599 241.83091,102.75599 241.83091,92.12606 214.37025,92.12606 214.37025,102.75599 196.6537,102.75599 196.6537,92.12606 178.93715,92.12606 178.93715,102.75599 161.2206,102.75599 161.2206,92.12606 143.50405,92.12606 143.50405,102.75599 125.7875,102.75599 125.7875,92.12606 108.07095,92.12606 108.07095,102.75599 90.354405,102.75599 90.354405,92.12606 72.637855,92.12606 72.637855,102.75599 54.921305,102.75599 54.921305,92.12606 27.460652,92.12606 27.460652,102.75599 10.62993,102.75599 10.62993,82.204792 0,82.204792 0,61.653594 10.62993,61.653594 10.62993,41.102396 0,41.102396 0,20.551198 10.62993,20.551198 10.62993,0 27.460652,0 27.460652,10.62993 54.921305,10.62993 54.921305,0 72.637855,0 72.637855,10.62993 90.354405,10.62993 90.354405,0 108.07095,0 108.07095,10.62993 125.7875,10.62993 125.7875,0 143.50405,0 "
         id="polygon5201" />
    </g>
    <g
       transform="matrix(0,0.28222199,-0.28222199,0,183,84)"
       id="g5207"
       style="fill:#ff8080;stroke:none">
      <polygon
         style="fill:#ff8080;stroke:none;stroke-width:0.90000075"
         points="108.07095,0 108.07095,10.62993 125.7875,10.62993 125.7875,0 143.50405,0 143.50405,10.62993 161.2206,10.62993 161.2206,0 178.93715,0 178.93715,10.62993 196.6537,10.62993 196.6537,0 214.37025,0 214.37025,10.62993 241.83091,10.62993 241.83091,0 258.66163,0 258.66163,20.551198 269.29156,20.551198 269.29156,41.102396 258.66163,41.102396 258.66163,61.653594 269.29156,61.653594 269.29156,82.204792 258.66163,82.204792 258.66163,102.75599 241.83091,102.75599 241.83091,92.12606 214.37025,92.12606 214.37025,102.75599 196.6537,102.75599 196.6537,92.12606 178.93715,92.12606 178.93715,102.75599 161.2206,102.75599 161.2206,92.12606 143.50405,92.12606 143.50405,102.75599 125.7875,102.75599 125.7875,92.12606 108.07095,92.12606 108.07095,102.75599 90.354405,102.75599 90.354405,92.12606 72.637855,92.12606 72.637855,102.75599 54.921305,102.75599 54.921305,92.12606 27.460652,92.12606 27.460652,102.75599 10.62993,102.75599 10.62993,82.204792 0,82.204792 0,61.653594 10.62993,61.653594 10.62993,41.102396 0,41.102396 0,20.551198 10.62993,20.551198 10.62993,0 27.460652,0 27.460652,10.62993 54.921305,10.62993 54.921305,0 72.637855,0 72.637855,10.62993 90.354405,10.62993 90.354405,0 "
         id="polygon5205" />
    </g>
    <g
       transform="matrix(0.28222199,0,0,0.28222199,-3,84)"
       id="g5211"
       style="fill:#ff8080;stroke:none">
      <polygon
         style="fill:#ff8080;stroke:none;stroke-width:0.90000075"
         points="125.7875,0 125.7875,10.62993 143.50405,10.62993 143.50405,0 161.2206,0 161.2206,10.62993 178.93715,10.62993 178.93715,0 196.6537,0 196.6537,10.62993 214.37025,10.62993 214.37025,0 232.0868,0 232.0868,10.62993 249.80335,10.62993 249.80335,0 267.5199,0 267.5199,10.62993 285.23645,10.62993 285.23645,0 302.953,0 302.953,10.62993 320.66956,10.62993 320.66956,0 338.3861,0 338.3861,10.62993 356.10265,10.62993 356.10265,0 373.8192,0 373.8192,10.62993 391.53575,10.62993 391.53575,0 409.2523,0 409.2523,10.62993 426.96885,10.62993 426.96885,0 444.68541,0 444.68541,10.62993 462.40195,10.62993 462.40195,0 480.1185,0 480.1185,10.62993 497.83505,10.62993 497.83505,0 525.29571,0 525.29571,10.62993 542.12643,10.62993 542.12643,27.460652 552.75636,27.460652 552.75636,54.921305 542.12643,54.921305 542.12643,72.637855 552.75636,72.637855 552.75636,90.354405 542.12643,90.354405 542.12643,108.07095 552.75636,108.07095 552.75636,125.7875 542.12643,125.7875 542.12643,143.50405 552.75636,143.50405 552.75636,161.2206 542.12643,161.2206 542.12643,178.93715 552.75636,178.93715 552.75636,196.6537 542.12643,196.6537 542.12643,214.37025 552.75636,214.37025 552.75636,241.83091 542.12643,241.83091 542.12643,258.66163 525.29571,258.66163 525.29571,269.29156 497.83505,269.29156 497.83505,258.66163 480.1185,258.66163 480.1185,269.29156 462.40195,269.29156 462.40195,258.66163 444.68541,258.66163 444.68541,269.29156 426.96885,269.29156 426.96885,258.66163 409.2523,258.66163 409.2523,269.29156 391.53575,269.29156 391.53575,258.66163 373.8192,258.66163 373.8192,269.29156 356.10265,269.29156 356.10265,258.66163 338.3861,258.66163 338.3861,269.29156 320.66956,269.29156 320.66956,258.66163 302.953,258.66163 302.953,269.29156 285.23645,269.29156 285.23645,258.66163 267.5199,258.66163 267.5199,269.29156 249.80335,269.29156 249.80335,258.66163 232.0868,258.66163 232.0868,269.29156 214.37025,269.29156 214.37025,258.66163 196.6537,258.66163 196.6537,269.29156 178.93715,269.29156 178.93715,258.66163 161.2206,258.66163 161.2206,269.29156 143.50405,269.29156 143.50405,258.66163 125.7875,258.66163 125.7875,269.29156 108.07095,269.29156 108.07095,258.66163 90.354405,258.66163 90.354405,269.29156 72.637855,269.29156 72.637855,258.66163 54.921305,258.66163 54.921305,269.29156 27.460652,269.29156 27.460652,258.66163 10.62993,258.66163 10.62993,241.83091 0,241.83091 0,214.37025 10.62993,214.37025 10.62993,196.6537 0,196.6537 0,178.93715 10.62993,178.93715 10.62993,161.2206 0,161.2206 0,143.50405 10.62993,143.50405 10.62993,125.7875 0,125.7875 0,108.07095 10.62993,108.07095 10.62993,90.354405 0,90.354405 0,72.637855 10.62993,72.637855 10.62993,54.921305 0,54.921305 0,27.460652 10.62993,27.460652 10.62993,10.62993 27.460652,10.62993 27.460652,0 54.921305,0 54.921305,10.62993 72.637855,10.62993 72.637855,0 90.354405,0 90.354405,10.62993 108.07095,10.62993 108.07095,0 "
         id="polygon5209" />
    </g>
    <g
       transform="matrix(0.28222199,0,0,0.28222199,-2.9999926,191)"
       id="g5215"
       style="fill:#ff8080;stroke:none">
      <path
         style="fill:#ff8080;stroke:none;stroke-width:0.90000075"
         d="M 143.50405,10.62993 V 0 h 17.71655 v 10.62993 h 17.71655 V 0 h 17.71655 v 10.62993 h 17.71655 V 0 h 17.71655 v 10.62993 h 17.71655 V 0 h 17.71655 v 10.62993 h 17.71655 V 0 H 302.953 v 10.62993 h 17.71656 V 0 h 17.71654 v 10.62993 h 17.71655 V 0 h 17.71655 v 10.62993 h 17.71655 V 0 h 17.71655 v 10.62993 h 17.71655 V 0 h 17.71656 v 10.62993 h 17.71654 V 0 h 17.71655 v 10.62993 h 17.71655 V 0 h 27.46066 v 10.62993 h 16.83072 v 16.830722 h 10.62993 v 27.460653 h -10.62993 v 17.71655 h 10.62993 v 17.71655 h -10.62993 v 17.716545 h 10.62993 v 17.71655 h -10.62993 v 17.71655 h 10.62993 v 17.71655 h -10.62993 v 17.71655 h 10.62993 v 17.71655 h -10.62993 v 17.71655 h 10.62993 v 27.46066 h -10.62993 v 16.83072 h -16.83072 v 10.62993 H 497.83505 V 258.66163 H 480.1185 v 10.62993 h -17.71655 v -10.62993 h -17.71654 v 10.62993 H 426.96885 V 258.66163 H 409.2523 v 10.62993 H 391.53575 V 258.66163 H 373.8192 v 10.62993 H 356.10265 V 258.66163 H 338.3861 v 10.62993 H 320.66956 V 258.66163 H 302.953 v 10.62993 H 285.23645 V 258.66163 H 267.5199 v 10.62993 H 249.80335 V 258.66163 H 232.0868 v 10.62993 H 214.37025 V 258.66163 H 196.6537 v 10.62993 H 178.93715 V 258.66163 H 161.2206 v 10.62993 H 143.50405 V 258.66163 H 125.7875 v 10.62993 H 108.07095 V 258.66163 H 90.354405 v 10.62993 h -17.71655 v -10.62993 h -17.71655 v 10.62993 H 27.460652 V 258.66163 H 10.62993 V 241.83091 H 0 V 214.37025 H 10.62993 V 196.6537 H 0 V 178.93715 H 10.62993 V 161.2206 H 0 V 143.50405 H 10.62993 V 125.7875 H 0 V 108.07095 H 10.62993 V 90.354405 H 0 V 72.637855 H 10.62993 V 54.921305 H 0 V 27.460652 H 10.62993 V 10.62993 H 27.460652 V 0 h 27.460653 v 10.62993 h 17.71655 V 0 h 17.71655 V 10.62993 H 108.07095 V 0 h 17.71655 v 10.62993 z"
         id="polygon5213"
         inkscape:connector-curvature="0" />
    </g>
    <g
       id="g4526"
       transform="translate(3.0000073,-2.9999959)">
      <path
         sodipodi:nodetypes="ccccc"
         inkscape:connector-curvature="0"
         id="rect4512"
         d="m 101,175 h 10 v 12 h -10 z"
         style="fill:#00ff00;stroke:none;stroke-width:1.78385615;stroke-miterlimit:4;stroke-dasharray:none;stroke-opacity:1" />
      <path
         sodipodi:nodetypes="ccccc"
         inkscape:connector-curvature="0"
         id="rect4514"
         d="M 68.999999,175 H 82 v 12 H 68.999999 Z"
         style="fill:#00ff00;stroke:none;stroke-width:1.5;stroke-miterlimit:4;stroke-dasharray:none;stroke-opacity:1" />
      <path
         sodipodi:nodetypes="sssss"
         inkscape:connector-curvature="0"
         id="path4520"
         d="m 91,171 c 0,1.65685 -1.343146,3 -3,3 -1.656854,0 -3,-1.34315 -3,-3 0,-1.65685 1.343146,-3 3,-3 1.656854,0 3,1.34315 3,3 z"
         style="fill:#00ff00;stroke:none;stroke-width:1.5;stroke-miterlimit:4;stroke-dasharray:none;stroke-opacity:1" />
    </g>
    <g
       id="g4892"
       transform="matrix(0,1,1,0,-145.5,-107.99999)">
      <path
         sodipodi:nodetypes="sssss"
         inkscape:connector-curvature="0"
         id="path4880"
         d="m 238,127 c 0,4.41828 -3.58172,8 -8,8 -4.41828,0 -8,-3.58172 -8,-8 0,-4.41828 3.58172,-8 8,-8 4.41828,0 8,3.58172 8,8 z"
         style="fill:#00ff00;stroke:none;stroke-width:0.1;stroke-miterlimit:4;stroke-dasharray:none;stroke-opacity:1" />
      <circle
         r="1.5"
         cy="133.5"
         cx="221.5"
         id="path4885"
         style="fill:#00ff00;stroke:none;stroke-width:0.1;stroke-miterlimit:4;stroke-dasharray:none;stroke-opacity:1" />
      <circle
         r="1.5"
         cy="120.5"
         cx="238.49998"
         id="path4887"
         style="fill:#00ff00;stroke:none;stroke-width:0.1;stroke-miterlimit:4;stroke-dasharray:none;stroke-opacity:1" />
    </g>
    <path
       style="fill:#ff8080;stroke:none;stroke-width:2.625;stroke-miterlimit:4;stroke-dasharray:none;stroke-opacity:1"
       d="m 156.99965,182 v 3.99976 H 160 v 4.00027 h -3.00035 v 3.99975 H 160 v 4.00028 h -3.00035 v 3.99975 H 160 l 5.53318,-4.12138 c 1.65526,1.82477 4.00312,2.86717 6.46679,2.87114 4.83256,1.9e-4 8.75027,-3.91728 8.75035,-8.74986 -8e-5,-4.83257 -3.91779,-8.75004 -8.75035,-8.74985 -2.46378,0.004 -4.81185,1.04591 -6.46732,2.87063 L 160,182 Z"
       id="path5268"
       inkscape:connector-curvature="0"
       sodipodi:nodetypes="cccccccccccccccccc" />
    <path
       style="fill:#00ff00;stroke:none;stroke-width:2.625;stroke-miterlimit:4;stroke-dasharray:none;stroke-opacity:1"
       d="m 171.99974,187.74994 a 4.25,4.25 0 0 1 4.25039,4.24987 4.25,4.25 0 0 1 -4.25039,4.24987 4.25,4.25 0 0 1 -4.24987,-4.24987 4.25,4.25 0 0 1 4.24987,-4.24987 z"
       id="path4506-6"
       inkscape:connector-curvature="0" />
    <g
       id="g5040"
       transform="rotate(90,76,163)">
      <path
         id="path4957"
         d="M 9.5,197 A 1.5,1.5 0 0 1 8,198.5 1.5,1.5 0 0 1 6.5,197 1.5,1.5 0 0 1 8,195.5 1.5,1.5 0 0 1 9.5,197 Z"
         style="fill:#00ff00;stroke:none;stroke-width:0.30000001;stroke-miterlimit:4;stroke-dasharray:none;stroke-opacity:1"
         inkscape:connector-curvature="0" />
      <path
         id="path4957-8"
         d="M 63.5,197 A 1.5,1.5 0 0 1 62,198.5 1.5,1.5 0 0 1 60.5,197 1.5,1.5 0 0 1 62,195.5 1.5,1.5 0 0 1 63.5,197 Z"
         style="fill:#00ff00;stroke:none;stroke-width:0.30000001;stroke-miterlimit:4;stroke-dasharray:none;stroke-opacity:1"
         inkscape:connector-curvature="0" />
      <circle
         r="15"
         cy="197"
         cx="35"
         id="path5035"
         style="fill:#00ff00;stroke:none;stroke-width:0.30000001;stroke-miterlimit:4;stroke-dasharray:none;stroke-opacity:1" />
    </g>
    <path
       style="fill:#00ff00;stroke:none;stroke-width:0.13165613;stroke-miterlimit:4;stroke-dasharray:none;stroke-opacity:1"
       d="M 124,121.9749 V 95.974903 h 16 V 121.9749 Z"
       id="rect4683"
       inkscape:connector-curvature="0"
       sodipodi:nodetypes="ccccc" />
    <path
       style="fill:#00ff00;stroke:none;stroke-width:0.30000001;stroke-miterlimit:4;stroke-dasharray:none;stroke-opacity:1"
       d="m 142,149.9749 a 1.5,1.5 0 0 1 1.5,1.5 1.5,1.5 0 0 1 -1.5,1.5 1.5,1.5 0 0 1 -1.5,-1.5 1.5,1.5 0 0 1 1.5,-1.5 z"
       id="path5046"
       inkscape:connector-curvature="0" />
    <path
       style="fill:#00ff00;stroke:none;stroke-width:0.30000001;stroke-miterlimit:4;stroke-dasharray:none;stroke-opacity:1"
       d="m 122,149.9749 a 1.5,1.5 0 0 1 1.5,1.5 1.5,1.5 0 0 1 -1.5,1.5 1.5,1.5 0 0 1 -1.5,-1.5 1.5,1.5 0 0 1 1.5,-1.5 z"
       id="path5046-4"
       inkscape:connector-curvature="0" />
    <path
       style="fill:#00ff00;stroke:none;stroke-width:0.30000001;stroke-miterlimit:4;stroke-dasharray:none;stroke-opacity:1"
       d="m 142,88.974903 a 1.5,1.5 0 0 1 1.5,1.5 1.5,1.5 0 0 1 -1.5,1.5 1.5,1.5 0 0 1 -1.5,-1.5 1.5,1.5 0 0 1 1.5,-1.5 z"
       id="path5046-8"
       inkscape:connector-curvature="0" />
    <path
       style="fill:#00ff00;stroke:none;stroke-width:0.30000001;stroke-miterlimit:4;stroke-dasharray:none;stroke-opacity:1"
       d="m 122,88.974903 a 1.5,1.5 0 0 1 1.5,1.5 1.5,1.5 0 0 1 -1.5,1.5 1.5,1.5 0 0 1 -1.5,-1.5 1.5,1.5 0 0 1 1.5,-1.5 z"
       id="path5046-4-9"
       inkscape:connector-curvature="0" />
    <path
       style="fill:#ff8080;stroke:none;stroke-width:2.625;stroke-miterlimit:4;stroke-dasharray:none;stroke-opacity:1"
       d="m 157,161 v 3.99976 h 3.00034 v 4.00027 H 157 v 3.99975 h 3.00034 v 4.00028 H 157 v 3.99975 h 3.00034 l 5.53318,-4.12138 c 1.65526,1.82477 4.00312,2.86717 6.46679,2.87114 4.83256,1.9e-4 8.75027,-3.91728 8.75035,-8.74986 -8e-5,-4.83257 -3.91779,-8.75004 -8.75035,-8.74985 -2.46377,0.004 -4.81185,1.04591 -6.46732,2.87063 L 160.00034,161 Z"
       id="path5268-0"
       inkscape:connector-curvature="0"
       sodipodi:nodetypes="cccccccccccccccccc" />
    <path
       style="fill:#00ff00;stroke:none;stroke-width:2.625;stroke-miterlimit:4;stroke-dasharray:none;stroke-opacity:1"
       d="m 172.00008,166.74994 a 4.25,4.25 0 0 1 4.25039,4.24987 4.25,4.25 0 0 1 -4.25039,4.24987 4.25,4.25 0 0 1 -4.24987,-4.24987 4.25,4.25 0 0 1 4.24987,-4.24987 z"
       id="path4506-6-7"
       inkscape:connector-curvature="0" />
    <path
       style="fill:#ff8080;stroke:none;stroke-width:2.625;stroke-miterlimit:4;stroke-dasharray:none;stroke-opacity:1"
       d="m 170.99963,204 a 8.75,8.75 0 0 0 -8.74985,8.74986 8.75,8.75 0 0 0 8.74985,8.74985 A 8.75,8.75 0 0 0 179.75,212.74986 8.75,8.75 0 0 0 170.99963,204 Z"
       id="path5268-8"
       inkscape:connector-curvature="0" />
    <path
       style="fill:#00ff00;stroke:none;stroke-width:2.625;stroke-miterlimit:4;stroke-dasharray:none;stroke-opacity:1"
       d="m 170.99963,208.49999 a 4.25,4.25 0 0 1 4.25039,4.24987 4.25,4.25 0 0 1 -4.25039,4.24987 4.25,4.25 0 0 1 -4.24987,-4.24987 4.25,4.25 0 0 1 4.24987,-4.24987 z"
       id="path4506-6-3"
       inkscape:connector-curvature="0" />
    <flowRoot
       xml:space="preserve"
       id="flowRoot5315"
       style="fill:black;fill-opacity:1;stroke:none;font-family:sans-serif;font-style:normal;font-weight:normal;font-size:40px;line-height:1.25;letter-spacing:0px;word-spacing:0px"><flowRegion
         id="flowRegion5317"><rect
           id="rect5319"
           width="226.77165"
           height="151.18111"
           x="944.8819"
           y="820.15747" /></flowRegion><flowPara
         id="flowPara5321"></flowPara></flowRoot>    <g
       id="g5373"
       transform="translate(-41.5,-1)">
      <rect
         y="123.99999"
         x="200"
         height="3"
         width="4"
         id="rect5323"
         style="fill:#00ff00;stroke:none;stroke-width:0.30000001;stroke-miterlimit:4;stroke-dasharray:none;stroke-opacity:1" />
      <rect
         y="124"
         x="208"
         height="3"
         width="4"
         id="rect5323-0"
         style="fill:#00ff00;stroke:none;stroke-width:0.30000001;stroke-miterlimit:4;stroke-dasharray:none;stroke-opacity:1" />
      <rect
         y="124"
         x="216"
         height="3"
         width="4"
         id="rect5323-3"
         style="fill:#00ff00;stroke:none;stroke-width:0.30000001;stroke-miterlimit:4;stroke-dasharray:none;stroke-opacity:1" />
      <rect
         y="119"
         x="200"
         height="3"
         width="4"
         id="rect5323-9"
         style="fill:#00ff00;stroke:none;stroke-width:0.30000001;stroke-miterlimit:4;stroke-dasharray:none;stroke-opacity:1" />
      <rect
         y="119.00001"
         x="208"
         height="3"
         width="4"
         id="rect5323-0-8"
         style="fill:#00ff00;stroke:none;stroke-width:0.30000001;stroke-miterlimit:4;stroke-dasharray:none;stroke-opacity:1" />
      <rect
         y="119.00001"
         x="216"
         height="3"
         width="4"
         id="rect5323-3-4"
         style="fill:#00ff00;stroke:none;stroke-width:0.30000001;stroke-miterlimit:4;stroke-dasharray:none;stroke-opacity:1" />
    </g>
    <path
       style="color:#000000;font-style:normal;font-variant:normal;font-weight:normal;font-stretch:normal;font-size:medium;line-height:normal;font-family:sans-serif;font-variant-ligatures:normal;font-variant-position:normal;font-variant-caps:normal;font-variant-numeric:normal;font-variant-alternates:normal;font-feature-settings:normal;text-indent:0;text-align:start;text-decoration:none;text-decoration-line:none;text-decoration-style:solid;text-decoration-color:#000000;letter-spacing:normal;word-spacing:normal;text-transform:none;writing-mode:lr-tb;direction:ltr;text-orientation:mixed;dominant-baseline:auto;baseline-shift:baseline;text-anchor:start;white-space:normal;shape-padding:0;clip-rule:nonzero;display:inline;overflow:visible;visibility:visible;opacity:1;isolation:auto;mix-blend-mode:normal;color-interpolation:sRGB;color-interpolation-filters:linearRGB;solid-color:#000000;solid-opacity:1;vector-effect:none;fill:#0000ff;fill-opacity:1;fill-rule:nonzero;stroke:none;stroke-width:0.30000001;stroke-linecap:butt;stroke-linejoin:miter;stroke-miterlimit:4;stroke-dasharray:none;stroke-dashoffset:0;stroke-opacity:1;color-rendering:auto;image-rendering:auto;shape-rendering:auto;text-rendering:auto;enable-background:accumulate"
       d="m 128.8186,139.98738 c 0,1.73792 1.41247,3.15039 3.15039,3.15039 1.73792,0 3.15039,-1.41247 3.15039,-3.15039 0,-1.73792 -1.41247,-3.15039 -3.15039,-3.15039 -1.73792,0 -3.15039,1.41247 -3.15039,3.15039 z m 0.30078,0 c 0,-1.57579 1.27382,-2.84961 2.84961,-2.84961 1.57579,0 2.84961,1.27382 2.84961,2.84961 0,1.57579 -1.27382,2.84961 -2.84961,2.84961 -1.57579,0 -2.84961,-1.27382 -2.84961,-2.84961 z"
       id="path4681-73"
       inkscape:connector-curvature="0" />
    <path
       style="color:#000000;font-style:normal;font-variant:normal;font-weight:normal;font-stretch:normal;font-size:medium;line-height:normal;font-family:sans-serif;font-variant-ligatures:normal;font-variant-position:normal;font-variant-caps:normal;font-variant-numeric:normal;font-variant-alternates:normal;font-feature-settings:normal;text-indent:0;text-align:start;text-decoration:none;text-decoration-line:none;text-decoration-style:solid;text-decoration-color:#000000;letter-spacing:normal;word-spacing:normal;text-transform:none;writing-mode:lr-tb;direction:ltr;text-orientation:mixed;dominant-baseline:auto;baseline-shift:baseline;text-anchor:start;white-space:normal;shape-padding:0;clip-rule:nonzero;display:inline;overflow:visible;visibility:visible;opacity:1;isolation:auto;mix-blend-mode:normal;color-interpolation:sRGB;color-interpolation-filters:linearRGB;solid-color:#000000;solid-opacity:1;vector-effect:none;fill:#0000ff;fill-opacity:1;fill-rule:nonzero;stroke:none;stroke-width:0.30000001;stroke-linecap:butt;stroke-linejoin:miter;stroke-miterlimit:4;stroke-dasharray:none;stroke-dashoffset:0;stroke-opacity:1;color-rendering:auto;image-rendering:auto;shape-rendering:auto;text-rendering:auto;enable-background:accumulate"
       d="m 128.8186,149.98738 c 0,1.73792 1.41247,3.15039 3.15039,3.15039 1.73792,0 3.15039,-1.41247 3.15039,-3.15039 0,-1.73792 -1.41247,-3.15039 -3.15039,-3.15039 -1.73792,0 -3.15039,1.41247 -3.15039,3.15039 z m 0.30078,0 c 0,-1.57579 1.27382,-2.84961 2.84961,-2.84961 1.57579,0 2.84961,1.27382 2.84961,2.84961 0,1.57579 -1.27382,2.84961 -2.84961,2.84961 -1.57579,0 -2.84961,-1.27382 -2.84961,-2.84961 z"
       id="path4681-7-9"
       inkscape:connector-curvature="0" />
    <path
       style="color:#000000;font-style:normal;font-variant:normal;font-weight:normal;font-stretch:normal;font-size:medium;line-height:normal;font-family:sans-serif;font-variant-ligatures:normal;font-variant-position:normal;font-variant-caps:normal;font-variant-numeric:normal;font-variant-alternates:normal;font-feature-settings:normal;text-indent:0;text-align:start;text-decoration:none;text-decoration-line:none;text-decoration-style:solid;text-decoration-color:#000000;letter-spacing:normal;word-spacing:normal;text-transform:none;writing-mode:lr-tb;direction:ltr;text-orientation:mixed;dominant-baseline:auto;baseline-shift:baseline;text-anchor:start;white-space:normal;shape-padding:0;clip-rule:nonzero;display:inline;overflow:visible;visibility:visible;opacity:1;isolation:auto;mix-blend-mode:normal;color-interpolation:sRGB;color-interpolation-filters:linearRGB;solid-color:#000000;solid-opacity:1;vector-effect:none;fill:#0000ff;fill-opacity:1;fill-rule:nonzero;stroke:none;stroke-width:0.30000001;stroke-linecap:butt;stroke-linejoin:miter;stroke-miterlimit:4;stroke-dasharray:none;stroke-dashoffset:0;stroke-opacity:1;color-rendering:auto;image-rendering:auto;shape-rendering:auto;text-rendering:auto;enable-background:accumulate"
       d="m 118.8186,139.98738 c 0,1.73792 1.41247,3.15039 3.15039,3.15039 1.73792,0 3.15039,-1.41247 3.15039,-3.15039 0,-1.73792 -1.41247,-3.15039 -3.15039,-3.15039 -1.73792,0 -3.15039,1.41247 -3.15039,3.15039 z m 0.30078,0 c 0,-1.57579 1.27382,-2.84961 2.84961,-2.84961 1.57579,0 2.84961,1.27382 2.84961,2.84961 0,1.57579 -1.27382,2.84961 -2.84961,2.84961 -1.57579,0 -2.84961,-1.27382 -2.84961,-2.84961 z"
       id="path4681-6-8"
       inkscape:connector-curvature="0" />
    <path
       style="color:#000000;font-style:normal;font-variant:normal;font-weight:normal;font-stretch:normal;font-size:medium;line-height:normal;font-family:sans-serif;font-variant-ligatures:normal;font-variant-position:normal;font-variant-caps:normal;font-variant-numeric:normal;font-variant-alternates:normal;font-feature-settings:normal;text-indent:0;text-align:start;text-decoration:none;text-decoration-line:none;text-decoration-style:solid;text-decoration-color:#000000;letter-spacing:normal;word-spacing:normal;text-transform:none;writing-mode:lr-tb;direction:ltr;text-orientation:mixed;dominant-baseline:auto;baseline-shift:baseline;text-anchor:start;white-space:normal;shape-padding:0;clip-rule:nonzero;display:inline;overflow:visible;visibility:visible;opacity:1;isolation:auto;mix-blend-mode:normal;color-interpolation:sRGB;color-interpolation-filters:linearRGB;solid-color:#000000;solid-opacity:1;vector-effect:none;fill:#0000ff;fill-opacity:1;fill-rule:nonzero;stroke:none;stroke-width:0.30000001;stroke-linecap:butt;stroke-linejoin:miter;stroke-miterlimit:4;stroke-dasharray:none;stroke-dashoffset:0;stroke-opacity:1;color-rendering:auto;image-rendering:auto;shape-rendering:auto;text-rendering:auto;enable-background:accumulate"
       d="m 128.8186,129.98738 c 0,1.73792 1.41247,3.15039 3.15039,3.15039 1.73792,0 3.15039,-1.41247 3.15039,-3.15039 0,-1.73792 -1.41247,-3.15039 -3.15039,-3.15039 -1.73792,0 -3.15039,1.41247 -3.15039,3.15039 z m 0.30078,0 c 0,-1.57579 1.27382,-2.84961 2.84961,-2.84961 1.57579,0 2.84961,1.27382 2.84961,2.84961 0,1.57579 -1.27382,2.84961 -2.84961,2.84961 -1.57579,0 -2.84961,-1.27382 -2.84961,-2.84961 z"
       id="path4681-0-6"
       inkscape:connector-curvature="0" />
    <path
       style="color:#000000;font-style:normal;font-variant:normal;font-weight:normal;font-stretch:normal;font-size:medium;line-height:normal;font-family:sans-serif;font-variant-ligatures:normal;font-variant-position:normal;font-variant-caps:normal;font-variant-numeric:normal;font-variant-alternates:normal;font-feature-settings:normal;text-indent:0;text-align:start;text-decoration:none;text-decoration-line:none;text-decoration-style:solid;text-decoration-color:#000000;letter-spacing:normal;word-spacing:normal;text-transform:none;writing-mode:lr-tb;direction:ltr;text-orientation:mixed;dominant-baseline:auto;baseline-shift:baseline;text-anchor:start;white-space:normal;shape-padding:0;clip-rule:nonzero;display:inline;overflow:visible;visibility:visible;opacity:1;isolation:auto;mix-blend-mode:normal;color-interpolation:sRGB;color-interpolation-filters:linearRGB;solid-color:#000000;solid-opacity:1;vector-effect:none;fill:#0000ff;fill-opacity:1;fill-rule:nonzero;stroke:none;stroke-width:0.30000001;stroke-linecap:butt;stroke-linejoin:miter;stroke-miterlimit:4;stroke-dasharray:none;stroke-dashoffset:0;stroke-opacity:1;color-rendering:auto;image-rendering:auto;shape-rendering:auto;text-rendering:auto;enable-background:accumulate"
       d="m 138.8186,139.98738 c 0,1.73792 1.41247,3.15039 3.15039,3.15039 1.73792,0 3.15039,-1.41247 3.15039,-3.15039 0,-1.73792 -1.41247,-3.15039 -3.15039,-3.15039 -1.73792,0 -3.15039,1.41247 -3.15039,3.15039 z m 0.30078,0 c 0,-1.57579 1.27382,-2.84961 2.84961,-2.84961 1.57579,0 2.84961,1.27382 2.84961,2.84961 0,1.57579 -1.27382,2.84961 -2.84961,2.84961 -1.57579,0 -2.84961,-1.27382 -2.84961,-2.84961 z"
       id="path4681-2-9"
       inkscape:connector-curvature="0" />
    <path
       style="fill:none;stroke:#000000;stroke-width:0.1;stroke-miterlimit:4;stroke-dasharray:none;stroke-opacity:1"
       d="m 131.96885,135.01248 c 2.02231,0 3.84549,1.21821 4.6194,3.08658 0.7739,1.86837 0.34612,4.01896 -1.08387,5.44895 -1.42999,1.42999 -3.58058,1.85777 -5.44895,1.08387 -1.86837,-0.77391 -3.08658,-2.59709 -3.08658,-4.6194"
       id="path5449"
       inkscape:connector-curvature="0"
       sodipodi:nodetypes="ccccc" />
    <path
       style="fill:none;stroke:#000000;stroke-width:0.1;stroke-miterlimit:4;stroke-dasharray:none;stroke-opacity:1"
       d="m 126.969,140.01262 c 0,-2.02231 -1.21821,-3.84549 -3.08658,-4.6194 -1.86837,-0.7739 -4.01896,-0.34612 -5.44895,1.08387 -1.42999,1.42999 -1.85777,3.58058 -1.08387,5.44895 0.77391,1.86837 2.59709,3.08658 4.61949,3.07405 m 5.00001,4.99371 c -2.5e-4,2.04099 1.21796,3.86417 3.08633,4.63808 1.86837,0.7739 4.01896,0.34612 5.44895,-1.08387 1.42999,-1.42999 1.85777,-3.58058 1.08387,-5.44895 -0.77391,-1.86837 -2.59709,-3.08658 -4.6194,-3.08658"
       id="path5449-3"
       inkscape:connector-curvature="0"
       sodipodi:nodetypes="cccccccccc" />
    <path
       style="fill:none;stroke:#000000;stroke-width:0.1;stroke-miterlimit:4;stroke-dasharray:none;stroke-opacity:1"
       d="m 136.96918,139.98757 c 0,2.02231 1.21821,3.84549 3.08658,4.6194 1.86837,0.7739 4.01896,0.34612 5.44895,-1.08387 1.42999,-1.42999 1.85777,-3.58058 1.08387,-5.44895 -0.77391,-1.86837 -2.59709,-3.08658 -4.61949,-3.07405 m -5.00001,-4.99371 c 2.4e-4,-2.04099 -1.21797,-3.86417 -3.08634,-4.63808 -1.86837,-0.7739 -4.01896,-0.34612 -5.44895,1.08387 -1.42999,1.42999 -1.85777,3.58058 -1.08387,5.44895 0.77391,1.86837 2.59709,3.08658 4.6194,3.08658"
       id="path5449-3-6"
       inkscape:connector-curvature="0"
       sodipodi:nodetypes="cccccccccc" />
  </g>
</svg>
